<mxfile host="app.diagrams.net" modified="2024-06-26T03:08:39.015Z" agent="Mozilla/5.0 (Macintosh; Intel Mac OS X 10_15_7) AppleWebKit/537.36 (KHTML, like Gecko) Chrome/126.0.0.0 Safari/537.36" etag="4-EoeIg4eEKkO9htsuDL" version="24.6.2" type="device">
  <diagram name="Page-1" id="Dz3MBjYI87WUYV7JDJVI">
    <mxGraphModel dx="2074" dy="801" grid="1" gridSize="10" guides="1" tooltips="1" connect="1" arrows="1" fold="1" page="1" pageScale="1" pageWidth="850" pageHeight="1100" math="1" shadow="0">
      <root>
        <mxCell id="0" />
        <mxCell id="1" parent="0" />
        <mxCell id="a0Vg2Tp1AngI2TKAHcTA-1" value="" style="rounded=1;whiteSpace=wrap;html=1;arcSize=0;strokeColor=none;" vertex="1" parent="1">
          <mxGeometry x="80" y="240" width="1400" height="320" as="geometry" />
        </mxCell>
        <mxCell id="NNpWvnrUKHme3QZrfwRI-20" value="" style="rounded=1;whiteSpace=wrap;html=1;fillColor=none;strokeColor=#6c8ebf;labelBackgroundColor=#dae8fc;strokeWidth=1;" parent="1" vertex="1">
          <mxGeometry x="260" y="320" width="960" height="160" as="geometry" />
        </mxCell>
        <mxCell id="NNpWvnrUKHme3QZrfwRI-3" style="edgeStyle=orthogonalEdgeStyle;rounded=0;orthogonalLoop=1;jettySize=auto;html=1;fillColor=#fff2cc;strokeColor=#d6b656;strokeWidth=2;" parent="1" source="NNpWvnrUKHme3QZrfwRI-2" edge="1">
          <mxGeometry relative="1" as="geometry">
            <mxPoint x="520" y="400" as="targetPoint" />
          </mxGeometry>
        </mxCell>
        <mxCell id="NNpWvnrUKHme3QZrfwRI-4" value="&lt;font style=&quot;font-size: 24px;&quot;&gt;\(s_1\)&lt;/font&gt;" style="edgeLabel;html=1;align=center;verticalAlign=middle;resizable=0;points=[];labelBackgroundColor=none;spacingTop=-33;spacingLeft=-10;spacingRight=-10;spacing=0;" parent="NNpWvnrUKHme3QZrfwRI-3" vertex="1" connectable="0">
          <mxGeometry x="-0.106" y="2" relative="1" as="geometry">
            <mxPoint y="-3" as="offset" />
          </mxGeometry>
        </mxCell>
        <mxCell id="NNpWvnrUKHme3QZrfwRI-5" style="edgeStyle=orthogonalEdgeStyle;rounded=0;orthogonalLoop=1;jettySize=auto;html=1;startArrow=classic;startFill=1;endArrow=none;endFill=0;fillColor=#fff2cc;strokeColor=#d6b656;strokeWidth=2;" parent="1" source="NNpWvnrUKHme3QZrfwRI-2" edge="1">
          <mxGeometry relative="1" as="geometry">
            <mxPoint x="120" y="400" as="targetPoint" />
            <Array as="points">
              <mxPoint x="170" y="400" />
              <mxPoint x="170" y="400" />
            </Array>
          </mxGeometry>
        </mxCell>
        <mxCell id="NNpWvnrUKHme3QZrfwRI-7" value="&lt;font style=&quot;font-size: 24px;&quot;&gt;\(s_0\)&lt;/font&gt;" style="edgeLabel;html=1;align=center;verticalAlign=middle;resizable=0;points=[];spacingTop=-33;spacingLeft=-10;spacingRight=-10;spacing=0;" parent="NNpWvnrUKHme3QZrfwRI-5" vertex="1" connectable="0">
          <mxGeometry x="0.0184" y="2" relative="1" as="geometry">
            <mxPoint y="-6" as="offset" />
          </mxGeometry>
        </mxCell>
        <mxCell id="NNpWvnrUKHme3QZrfwRI-2" value="&lt;font style=&quot;font-size: 24px;&quot;&gt;\(f_1\)&lt;/font&gt;" style="rounded=1;whiteSpace=wrap;html=1;fillColor=none;strokeColor=#d6b656;" parent="1" vertex="1">
          <mxGeometry x="320" y="360" width="80" height="80" as="geometry" />
        </mxCell>
        <mxCell id="NNpWvnrUKHme3QZrfwRI-8" style="edgeStyle=orthogonalEdgeStyle;rounded=0;orthogonalLoop=1;jettySize=auto;html=1;fillColor=#fff2cc;strokeColor=#d6b656;strokeWidth=2;" parent="1" source="NNpWvnrUKHme3QZrfwRI-12" edge="1">
          <mxGeometry relative="1" as="geometry">
            <mxPoint x="900" y="400" as="targetPoint" />
          </mxGeometry>
        </mxCell>
        <mxCell id="NNpWvnrUKHme3QZrfwRI-9" value="&lt;font style=&quot;font-size: 24px;&quot;&gt;\(s_k\)&lt;/font&gt;" style="edgeLabel;html=1;align=center;verticalAlign=middle;resizable=0;points=[];labelBackgroundColor=none;labelBorderColor=none;textShadow=0;perimeter=rectanglePerimeter;imageWidth=24;spacingTop=-33;spacingLeft=-10;spacingRight=-10;spacing=0;" parent="NNpWvnrUKHme3QZrfwRI-8" vertex="1" connectable="0">
          <mxGeometry x="-0.106" y="2" relative="1" as="geometry">
            <mxPoint y="-3" as="offset" />
          </mxGeometry>
        </mxCell>
        <mxCell id="NNpWvnrUKHme3QZrfwRI-10" style="edgeStyle=orthogonalEdgeStyle;rounded=0;orthogonalLoop=1;jettySize=auto;html=1;startArrow=classic;startFill=1;endArrow=none;endFill=0;fillColor=#fff2cc;strokeColor=#d6b656;strokeWidth=2;" parent="1" source="NNpWvnrUKHme3QZrfwRI-12" edge="1">
          <mxGeometry relative="1" as="geometry">
            <mxPoint x="580" y="400" as="targetPoint" />
          </mxGeometry>
        </mxCell>
        <mxCell id="NNpWvnrUKHme3QZrfwRI-11" value="&lt;font style=&quot;font-size: 24px;&quot;&gt;\(s_{k-1}\)&lt;/font&gt;" style="edgeLabel;html=1;align=center;verticalAlign=middle;resizable=0;points=[];labelBackgroundColor=none;spacingTop=-33;spacingLeft=-10;spacingRight=-10;spacing=0;" parent="NNpWvnrUKHme3QZrfwRI-10" vertex="1" connectable="0">
          <mxGeometry x="0.0184" y="2" relative="1" as="geometry">
            <mxPoint y="-6" as="offset" />
          </mxGeometry>
        </mxCell>
        <mxCell id="NNpWvnrUKHme3QZrfwRI-12" value="&lt;font style=&quot;font-size: 24px;&quot;&gt;\(f_k\)&lt;/font&gt;" style="rounded=1;whiteSpace=wrap;html=1;fillColor=none;strokeColor=#d6b656;" parent="1" vertex="1">
          <mxGeometry x="700" y="360" width="80" height="80" as="geometry" />
        </mxCell>
        <mxCell id="NNpWvnrUKHme3QZrfwRI-13" value="\(...\)" style="text;html=1;align=center;verticalAlign=middle;whiteSpace=wrap;rounded=0;" parent="1" vertex="1">
          <mxGeometry x="520" y="381" width="60" height="30" as="geometry" />
        </mxCell>
        <mxCell id="NNpWvnrUKHme3QZrfwRI-14" value="\(...\)" style="text;html=1;align=center;verticalAlign=middle;whiteSpace=wrap;rounded=0;" parent="1" vertex="1">
          <mxGeometry x="905" y="381" width="60" height="30" as="geometry" />
        </mxCell>
        <mxCell id="NNpWvnrUKHme3QZrfwRI-15" style="edgeStyle=orthogonalEdgeStyle;rounded=0;orthogonalLoop=1;jettySize=auto;html=1;fillColor=#fff2cc;strokeColor=#d6b656;strokeWidth=2;" parent="1" source="NNpWvnrUKHme3QZrfwRI-19" edge="1">
          <mxGeometry relative="1" as="geometry">
            <mxPoint x="1440" y="400" as="targetPoint" />
          </mxGeometry>
        </mxCell>
        <mxCell id="NNpWvnrUKHme3QZrfwRI-16" value="&lt;font style=&quot;font-size: 24px;&quot;&gt;\(s_n=f(s_0)\)&lt;/font&gt;" style="edgeLabel;html=1;align=center;verticalAlign=middle;resizable=0;points=[];imageWidth=24;imageHeight=24;spacingTop=-33;spacingLeft=23;spacingRight=-10;spacing=0;" parent="NNpWvnrUKHme3QZrfwRI-15" vertex="1" connectable="0">
          <mxGeometry x="-0.106" y="2" relative="1" as="geometry">
            <mxPoint x="26" y="-5" as="offset" />
          </mxGeometry>
        </mxCell>
        <mxCell id="NNpWvnrUKHme3QZrfwRI-17" style="edgeStyle=orthogonalEdgeStyle;rounded=0;orthogonalLoop=1;jettySize=auto;html=1;startArrow=classic;startFill=1;endArrow=none;endFill=0;fillColor=#fff2cc;strokeColor=#d6b656;strokeWidth=2;" parent="1" source="NNpWvnrUKHme3QZrfwRI-19" edge="1">
          <mxGeometry relative="1" as="geometry">
            <mxPoint x="970" y="400" as="targetPoint" />
          </mxGeometry>
        </mxCell>
        <mxCell id="NNpWvnrUKHme3QZrfwRI-18" value="&lt;font style=&quot;font-size: 24px;&quot;&gt;\(s_{n-1}\)&lt;/font&gt;" style="edgeLabel;html=1;align=center;verticalAlign=middle;resizable=0;points=[];absoluteArcSize=0;noLabel=0;portConstraintRotation=0;allowArrows=0;snapToPoint=0;perimeter=ellipsePerimeter;container=0;dropTarget=0;backgroundOutline=0;autosize=0;fixedWidth=0;resizeWidth=0;rotation=0;labelBackgroundColor=none;spacingTop=-33;spacing=0;spacingRight=-10;spacingLeft=-10;" parent="NNpWvnrUKHme3QZrfwRI-17" vertex="1" connectable="0">
          <mxGeometry x="0.0184" y="2" relative="1" as="geometry">
            <mxPoint y="-6" as="offset" />
          </mxGeometry>
        </mxCell>
        <mxCell id="NNpWvnrUKHme3QZrfwRI-19" value="&lt;font style=&quot;font-size: 24px;&quot;&gt;\(f_n\)&lt;/font&gt;" style="rounded=1;whiteSpace=wrap;html=1;fillColor=none;strokeColor=#d6b656;" parent="1" vertex="1">
          <mxGeometry x="1080" y="360" width="80" height="80" as="geometry" />
        </mxCell>
        <mxCell id="NNpWvnrUKHme3QZrfwRI-21" value="&lt;font style=&quot;font-size: 24px;&quot;&gt;\(f\)&lt;/font&gt;" style="text;html=1;align=center;verticalAlign=middle;whiteSpace=wrap;rounded=0;" parent="1" vertex="1">
          <mxGeometry x="1170" y="440" width="60" height="30" as="geometry" />
        </mxCell>
      </root>
    </mxGraphModel>
  </diagram>
</mxfile>
